<mxfile host="Electron" agent="Mozilla/5.0 (Macintosh; Intel Mac OS X 10_15_7) AppleWebKit/537.36 (KHTML, like Gecko) draw.io/24.7.8 Chrome/128.0.6613.36 Electron/32.0.1 Safari/537.36" version="24.7.8">
  <diagram name="Page-1" id="JJ68OW5Q_86SRg-u4Hyc">
    <mxGraphModel dx="2069" dy="804" grid="1" gridSize="10" guides="1" tooltips="1" connect="1" arrows="1" fold="1" page="1" pageScale="1" pageWidth="827" pageHeight="1169" math="0" shadow="0">
      <root>
        <mxCell id="0" />
        <mxCell id="1" parent="0" />
        <mxCell id="hSfQpLQwOJxyIUdCEwKA-18" value="" style="rounded=0;whiteSpace=wrap;html=1;fillColor=#dae8fc;strokeColor=#6c8ebf;" vertex="1" parent="1">
          <mxGeometry x="-400" y="150" width="1270" height="590" as="geometry" />
        </mxCell>
        <mxCell id="hSfQpLQwOJxyIUdCEwKA-4" style="edgeStyle=orthogonalEdgeStyle;rounded=0;orthogonalLoop=1;jettySize=auto;html=1;entryX=0;entryY=0.5;entryDx=0;entryDy=0;" edge="1" parent="1" source="hSfQpLQwOJxyIUdCEwKA-1" target="hSfQpLQwOJxyIUdCEwKA-3">
          <mxGeometry relative="1" as="geometry" />
        </mxCell>
        <mxCell id="hSfQpLQwOJxyIUdCEwKA-1" value="Prompt Template + Query As &quot;All Txn Categories&quot;" style="rounded=0;whiteSpace=wrap;html=1;fillColor=#e1d5e7;strokeColor=#9673a6;" vertex="1" parent="1">
          <mxGeometry x="50" y="280" width="120" height="60" as="geometry" />
        </mxCell>
        <mxCell id="hSfQpLQwOJxyIUdCEwKA-2" value="LangChain Framework" style="text;html=1;align=center;verticalAlign=middle;resizable=0;points=[];autosize=1;strokeColor=none;fillColor=none;" vertex="1" parent="1">
          <mxGeometry x="-390" y="160" width="140" height="30" as="geometry" />
        </mxCell>
        <mxCell id="hSfQpLQwOJxyIUdCEwKA-7" style="edgeStyle=orthogonalEdgeStyle;rounded=0;orthogonalLoop=1;jettySize=auto;html=1;entryX=0.5;entryY=0;entryDx=0;entryDy=0;" edge="1" parent="1" source="hSfQpLQwOJxyIUdCEwKA-3" target="hSfQpLQwOJxyIUdCEwKA-6">
          <mxGeometry relative="1" as="geometry" />
        </mxCell>
        <mxCell id="hSfQpLQwOJxyIUdCEwKA-3" value="OpenAI API +LLM" style="rounded=0;whiteSpace=wrap;html=1;fillColor=#d5e8d4;strokeColor=#82b366;" vertex="1" parent="1">
          <mxGeometry x="380" y="280" width="120" height="60" as="geometry" />
        </mxCell>
        <mxCell id="hSfQpLQwOJxyIUdCEwKA-16" style="edgeStyle=orthogonalEdgeStyle;rounded=0;orthogonalLoop=1;jettySize=auto;html=1;entryX=0.5;entryY=1;entryDx=0;entryDy=0;" edge="1" parent="1" source="hSfQpLQwOJxyIUdCEwKA-5" target="hSfQpLQwOJxyIUdCEwKA-15">
          <mxGeometry relative="1" as="geometry" />
        </mxCell>
        <mxCell id="hSfQpLQwOJxyIUdCEwKA-29" style="edgeStyle=orthogonalEdgeStyle;rounded=0;orthogonalLoop=1;jettySize=auto;html=1;entryX=0.5;entryY=0;entryDx=0;entryDy=0;" edge="1" parent="1" source="hSfQpLQwOJxyIUdCEwKA-5" target="hSfQpLQwOJxyIUdCEwKA-28">
          <mxGeometry relative="1" as="geometry" />
        </mxCell>
        <mxCell id="hSfQpLQwOJxyIUdCEwKA-5" value="FAISS Vector Index (File)" style="rounded=0;whiteSpace=wrap;html=1;fillColor=#d5e8d4;strokeColor=#82b366;" vertex="1" parent="1">
          <mxGeometry x="680" y="410" width="120" height="60" as="geometry" />
        </mxCell>
        <mxCell id="hSfQpLQwOJxyIUdCEwKA-8" style="edgeStyle=orthogonalEdgeStyle;rounded=0;orthogonalLoop=1;jettySize=auto;html=1;entryX=0;entryY=0.5;entryDx=0;entryDy=0;" edge="1" parent="1" source="hSfQpLQwOJxyIUdCEwKA-6" target="hSfQpLQwOJxyIUdCEwKA-5">
          <mxGeometry relative="1" as="geometry" />
        </mxCell>
        <mxCell id="hSfQpLQwOJxyIUdCEwKA-6" value="Hugging face Transformer Embedding" style="rounded=0;whiteSpace=wrap;html=1;fillColor=#d5e8d4;strokeColor=#82b366;" vertex="1" parent="1">
          <mxGeometry x="380" y="410" width="120" height="60" as="geometry" />
        </mxCell>
        <mxCell id="hSfQpLQwOJxyIUdCEwKA-19" style="edgeStyle=orthogonalEdgeStyle;rounded=0;orthogonalLoop=1;jettySize=auto;html=1;entryX=0;entryY=0.5;entryDx=0;entryDy=0;" edge="1" parent="1" source="hSfQpLQwOJxyIUdCEwKA-10" target="hSfQpLQwOJxyIUdCEwKA-12">
          <mxGeometry relative="1" as="geometry" />
        </mxCell>
        <mxCell id="hSfQpLQwOJxyIUdCEwKA-10" value="Prompt Template + Query As &quot;All User Preferences&quot;" style="rounded=0;whiteSpace=wrap;html=1;fillColor=#e1d5e7;strokeColor=#9673a6;" vertex="1" parent="1">
          <mxGeometry x="50" y="410" width="120" height="60" as="geometry" />
        </mxCell>
        <mxCell id="hSfQpLQwOJxyIUdCEwKA-13" style="edgeStyle=orthogonalEdgeStyle;rounded=0;orthogonalLoop=1;jettySize=auto;html=1;entryX=0;entryY=0.5;entryDx=0;entryDy=0;" edge="1" parent="1" source="hSfQpLQwOJxyIUdCEwKA-12" target="hSfQpLQwOJxyIUdCEwKA-6">
          <mxGeometry relative="1" as="geometry" />
        </mxCell>
        <mxCell id="hSfQpLQwOJxyIUdCEwKA-12" value="Topic Modelling" style="rounded=0;whiteSpace=wrap;html=1;fillColor=#f8cecc;strokeColor=#b85450;" vertex="1" parent="1">
          <mxGeometry x="230" y="410" width="100" height="60" as="geometry" />
        </mxCell>
        <mxCell id="hSfQpLQwOJxyIUdCEwKA-17" style="edgeStyle=orthogonalEdgeStyle;rounded=0;orthogonalLoop=1;jettySize=auto;html=1;entryX=1;entryY=0.5;entryDx=0;entryDy=0;" edge="1" parent="1" source="hSfQpLQwOJxyIUdCEwKA-15" target="hSfQpLQwOJxyIUdCEwKA-3">
          <mxGeometry relative="1" as="geometry" />
        </mxCell>
        <mxCell id="hSfQpLQwOJxyIUdCEwKA-15" value="Prompt Template + &quot;Using chunks of users info&quot;" style="rounded=0;whiteSpace=wrap;html=1;" vertex="1" parent="1">
          <mxGeometry x="680" y="280" width="120" height="60" as="geometry" />
        </mxCell>
        <mxCell id="hSfQpLQwOJxyIUdCEwKA-21" style="edgeStyle=orthogonalEdgeStyle;rounded=0;orthogonalLoop=1;jettySize=auto;html=1;entryX=0.5;entryY=1;entryDx=0;entryDy=0;" edge="1" parent="1" source="hSfQpLQwOJxyIUdCEwKA-24" target="hSfQpLQwOJxyIUdCEwKA-6">
          <mxGeometry relative="1" as="geometry" />
        </mxCell>
        <mxCell id="hSfQpLQwOJxyIUdCEwKA-20" value="Prompt Template + Query As &quot;User Preferences&quot;" style="rounded=0;whiteSpace=wrap;html=1;fillColor=#e1d5e7;strokeColor=#9673a6;" vertex="1" parent="1">
          <mxGeometry x="50" y="530" width="120" height="60" as="geometry" />
        </mxCell>
        <mxCell id="hSfQpLQwOJxyIUdCEwKA-23" style="edgeStyle=orthogonalEdgeStyle;rounded=0;orthogonalLoop=1;jettySize=auto;html=1;entryX=0.5;entryY=1;entryDx=0;entryDy=0;" edge="1" parent="1" source="hSfQpLQwOJxyIUdCEwKA-22" target="hSfQpLQwOJxyIUdCEwKA-6">
          <mxGeometry relative="1" as="geometry" />
        </mxCell>
        <mxCell id="hSfQpLQwOJxyIUdCEwKA-22" value="Prompt Template + Query As &quot;User Preferences with Transaction Info&quot;" style="rounded=0;whiteSpace=wrap;html=1;fillColor=#e1d5e7;strokeColor=#9673a6;" vertex="1" parent="1">
          <mxGeometry x="50" y="640" width="120" height="60" as="geometry" />
        </mxCell>
        <mxCell id="hSfQpLQwOJxyIUdCEwKA-25" value="" style="edgeStyle=orthogonalEdgeStyle;rounded=0;orthogonalLoop=1;jettySize=auto;html=1;entryX=0;entryY=0.5;entryDx=0;entryDy=0;" edge="1" parent="1" source="hSfQpLQwOJxyIUdCEwKA-20" target="hSfQpLQwOJxyIUdCEwKA-24">
          <mxGeometry relative="1" as="geometry">
            <mxPoint x="170" y="560" as="sourcePoint" />
            <mxPoint x="440" y="470" as="targetPoint" />
          </mxGeometry>
        </mxCell>
        <mxCell id="hSfQpLQwOJxyIUdCEwKA-24" value="Topic Modelling" style="rounded=0;whiteSpace=wrap;html=1;fillColor=#f8cecc;strokeColor=#b85450;" vertex="1" parent="1">
          <mxGeometry x="230" y="530" width="100" height="60" as="geometry" />
        </mxCell>
        <mxCell id="hSfQpLQwOJxyIUdCEwKA-42" style="edgeStyle=orthogonalEdgeStyle;rounded=0;orthogonalLoop=1;jettySize=auto;html=1;entryX=0.5;entryY=1;entryDx=0;entryDy=0;" edge="1" parent="1" source="hSfQpLQwOJxyIUdCEwKA-28" target="hSfQpLQwOJxyIUdCEwKA-30">
          <mxGeometry relative="1" as="geometry">
            <Array as="points">
              <mxPoint x="740" y="780" />
              <mxPoint x="-330" y="780" />
            </Array>
          </mxGeometry>
        </mxCell>
        <mxCell id="hSfQpLQwOJxyIUdCEwKA-28" value="&lt;div style=&quot;&quot;&gt;&lt;span style=&quot;background-color: initial; white-space: pre;&quot;&gt;List of transaction &lt;br/&gt;&lt;/span&gt;&lt;span style=&quot;background-color: initial; white-space: pre;&quot;&gt;with&lt;/span&gt;&lt;span style=&quot;background-color: initial; white-space: pre;&quot;&gt; personalized &lt;br/&gt;&lt;div style=&quot;&quot;&gt;&lt;span style=&quot;background-color: initial;&quot;&gt;category&lt;/span&gt;&lt;span style=&quot;background-color: initial; white-space: normal;&quot;&gt;&amp;nbsp;&lt;/span&gt;&lt;/div&gt;&lt;/span&gt;&lt;/div&gt;" style="rounded=0;whiteSpace=wrap;html=1;align=center;" vertex="1" parent="1">
          <mxGeometry x="680" y="540" width="120" height="60" as="geometry" />
        </mxCell>
        <mxCell id="hSfQpLQwOJxyIUdCEwKA-32" style="edgeStyle=orthogonalEdgeStyle;rounded=0;orthogonalLoop=1;jettySize=auto;html=1;entryX=0;entryY=0.5;entryDx=0;entryDy=0;" edge="1" parent="1" source="hSfQpLQwOJxyIUdCEwKA-30" target="hSfQpLQwOJxyIUdCEwKA-31">
          <mxGeometry relative="1" as="geometry" />
        </mxCell>
        <mxCell id="hSfQpLQwOJxyIUdCEwKA-30" value="Data Lake&amp;nbsp;&lt;div&gt;(BigQuery)&lt;/div&gt;" style="rounded=0;whiteSpace=wrap;html=1;" vertex="1" parent="1">
          <mxGeometry x="-390" y="410" width="120" height="60" as="geometry" />
        </mxCell>
        <mxCell id="hSfQpLQwOJxyIUdCEwKA-35" style="edgeStyle=orthogonalEdgeStyle;rounded=0;orthogonalLoop=1;jettySize=auto;html=1;entryX=0;entryY=0.5;entryDx=0;entryDy=0;" edge="1" parent="1" source="hSfQpLQwOJxyIUdCEwKA-31" target="hSfQpLQwOJxyIUdCEwKA-33">
          <mxGeometry relative="1" as="geometry" />
        </mxCell>
        <mxCell id="hSfQpLQwOJxyIUdCEwKA-31" value="CSV Loader" style="rounded=0;whiteSpace=wrap;html=1;" vertex="1" parent="1">
          <mxGeometry x="-250" y="410" width="120" height="60" as="geometry" />
        </mxCell>
        <mxCell id="hSfQpLQwOJxyIUdCEwKA-38" style="edgeStyle=orthogonalEdgeStyle;rounded=0;orthogonalLoop=1;jettySize=auto;html=1;entryX=0;entryY=0.5;entryDx=0;entryDy=0;" edge="1" parent="1" source="hSfQpLQwOJxyIUdCEwKA-33" target="hSfQpLQwOJxyIUdCEwKA-1">
          <mxGeometry relative="1" as="geometry" />
        </mxCell>
        <mxCell id="hSfQpLQwOJxyIUdCEwKA-39" style="edgeStyle=orthogonalEdgeStyle;rounded=0;orthogonalLoop=1;jettySize=auto;html=1;" edge="1" parent="1" source="hSfQpLQwOJxyIUdCEwKA-33" target="hSfQpLQwOJxyIUdCEwKA-10">
          <mxGeometry relative="1" as="geometry" />
        </mxCell>
        <mxCell id="hSfQpLQwOJxyIUdCEwKA-40" style="edgeStyle=orthogonalEdgeStyle;rounded=0;orthogonalLoop=1;jettySize=auto;html=1;entryX=0;entryY=0.5;entryDx=0;entryDy=0;" edge="1" parent="1" source="hSfQpLQwOJxyIUdCEwKA-33" target="hSfQpLQwOJxyIUdCEwKA-20">
          <mxGeometry relative="1" as="geometry" />
        </mxCell>
        <mxCell id="hSfQpLQwOJxyIUdCEwKA-41" style="edgeStyle=orthogonalEdgeStyle;rounded=0;orthogonalLoop=1;jettySize=auto;html=1;entryX=0;entryY=0.5;entryDx=0;entryDy=0;" edge="1" parent="1" source="hSfQpLQwOJxyIUdCEwKA-33" target="hSfQpLQwOJxyIUdCEwKA-22">
          <mxGeometry relative="1" as="geometry" />
        </mxCell>
        <mxCell id="hSfQpLQwOJxyIUdCEwKA-33" value="CSV Downloader" style="rounded=0;whiteSpace=wrap;html=1;" vertex="1" parent="1">
          <mxGeometry x="-110" y="410" width="120" height="60" as="geometry" />
        </mxCell>
      </root>
    </mxGraphModel>
  </diagram>
</mxfile>
